<svg xmlns="http://www.w3.org/2000/svg" width="1000" height="620" viewBox="0 0 1000 620" role="img" aria-labelledby="title desc">
<title id="title">Sơ đồ module 29: Bubble diagram</title><desc id="desc">zoning chung-riêng, quan hệ phòng và luồng đi</desc>
<rect width="1000" height="620" rx="28" fill="#f6f0e6"/>
<rect x="48" y="48" width="904" height="524" rx="24" fill="#fffdf8" stroke="#d8d0be"/>
<text x="92" y="112" font-family="Inter, Arial, sans-serif" font-size="22" font-weight="800" fill="#6fa8b8">SƠ ĐỒ TRỌNG TÂM</text>
<text x="92" y="164" font-family="Inter, Arial, sans-serif" font-size="42" font-weight="800" fill="#17324d">Công Năng Và Zoning</text>
<text x="92" y="202" font-family="Inter, Arial, sans-serif" font-size="18" fill="#59685a">zoning chung-riêng, quan hệ phòng và luồng đi</text>
<path d="M130 400 C250 250 420 465 535 330 C650 190 770 320 875 235" fill="none" stroke="#6fa8b8" stroke-width="8" stroke-linecap="round" opacity=".42"/>
<line x1="165" y1="365" x2="405" y2="365" stroke="#17324d" stroke-width="3" opacity=".25"/><line x1="405" y1="365" x2="645" y2="365" stroke="#17324d" stroke-width="3" opacity=".25"/><line x1="645" y1="365" x2="885" y2="365" stroke="#17324d" stroke-width="3" opacity=".25"/>
<g><circle cx="165" cy="365" r="64" fill="#6fa8b8" opacity=".95"/><circle cx="165" cy="365" r="42" fill="#fffdf8" opacity=".72"/><text x="165" y="360" text-anchor="middle" font-family="Inter, Arial, sans-serif" font-size="15" font-weight="800" fill="#17324d">Zoning</text><text x="165" y="384" text-anchor="middle" font-family="Inter, Arial, sans-serif" font-size="13" font-weight="700" fill="#5d594e">Lớp 1</text></g><g><circle cx="405" cy="365" r="64" fill="#e8b86d" opacity=".95"/><circle cx="405" cy="365" r="42" fill="#fffdf8" opacity=".72"/><text x="405" y="360" text-anchor="middle" font-family="Inter, Arial, sans-serif" font-size="15" font-weight="800" fill="#17324d">Ma trận</text><text x="405" y="384" text-anchor="middle" font-family="Inter, Arial, sans-serif" font-size="13" font-weight="700" fill="#5d594e">Lớp 2</text></g><g><circle cx="645" cy="365" r="64" fill="#6fa8b8" opacity=".95"/><circle cx="645" cy="365" r="42" fill="#fffdf8" opacity=".72"/><text x="645" y="360" text-anchor="middle" font-family="Inter, Arial, sans-serif" font-size="15" font-weight="800" fill="#17324d">Luồng đi</text><text x="645" y="384" text-anchor="middle" font-family="Inter, Arial, sans-serif" font-size="13" font-weight="700" fill="#5d594e">Lớp 3</text></g><g><circle cx="885" cy="365" r="64" fill="#e8b86d" opacity=".95"/><circle cx="885" cy="365" r="42" fill="#fffdf8" opacity=".72"/><text x="885" y="360" text-anchor="middle" font-family="Inter, Arial, sans-serif" font-size="15" font-weight="800" fill="#17324d">Bubble diagram</text><text x="885" y="384" text-anchor="middle" font-family="Inter, Arial, sans-serif" font-size="13" font-weight="700" fill="#5d594e">Lớp 4</text></g>
<rect x="92" y="486" width="816" height="50" rx="18" fill="#17324d" opacity=".92"/>
<text x="118" y="518" font-family="Inter, Arial, sans-serif" font-size="18" font-weight="700" fill="#fff">Dùng visual này để đọc nhanh logic trước khi đi vào bảng/checklist chi tiết.</text>
</svg>